<svg width="24" height="24" viewBox="0 0 24 24" fill="none" xmlns="http://www.w3.org/2000/svg">
<path opacity="0.2" d="M20.0303 8.03033L15.9697 3.96967C15.829 3.82903 15.6383 3.75001 15.4393 3.75002H4.5C4.40151 3.75001 4.30398 3.76941 4.21299 3.8071C4.12199 3.84479 4.03931 3.90004 3.96967 3.96968C3.90002 4.03933 3.84478 4.12201 3.80709 4.213C3.7694 4.304 3.75 4.40152 3.75 4.50002V19.5C3.75 19.6989 3.82902 19.8897 3.96967 20.0303C4.11032 20.171 4.30109 20.25 4.5 20.25H19.5C19.6989 20.25 19.8897 20.171 20.0303 20.0303C20.171 19.8897 20.25 19.6989 20.25 19.5V8.56065C20.25 8.46216 20.2306 8.36463 20.1929 8.27364C20.1552 8.18265 20.1 8.09997 20.0303 8.03033V8.03033ZM12.0005 17.2508C11.4814 17.2508 10.9739 17.0969 10.5422 16.8084C10.1105 16.52 9.77405 16.11 9.57537 15.6304C9.37669 15.1507 9.3247 14.6229 9.42599 14.1137C9.52727 13.6045 9.77728 13.1368 10.1444 12.7697C10.5115 12.4026 10.9792 12.1526 11.4884 12.0513C11.9976 11.95 12.5254 12.002 13.0051 12.2006C13.4847 12.3993 13.8947 12.7358 14.1832 13.1675C14.4716 13.5991 14.6255 14.1067 14.6255 14.6258C14.6255 14.9706 14.5577 15.3119 14.4257 15.6304C14.2938 15.9489 14.1005 16.2382 13.8567 16.482C13.613 16.7257 13.3236 16.9191 13.0051 17.051C12.6866 17.1829 12.3453 17.2508 12.0005 17.2508V17.2508Z" fill="#3370D7"/>
<path d="M20.25 8.56066V19.5C20.25 19.6989 20.171 19.8897 20.0303 20.0303C19.8897 20.171 19.6989 20.25 19.5 20.25H4.5C4.30109 20.25 4.11032 20.171 3.96967 20.0303C3.82902 19.8897 3.75 19.6989 3.75 19.5V4.5C3.75 4.30109 3.82902 4.11032 3.96967 3.96967C4.11032 3.82902 4.30109 3.75 4.5 3.75H15.4393C15.5378 3.75 15.6354 3.7694 15.7264 3.80709C15.8173 3.84478 15.9 3.90003 15.9697 3.96967L20.0303 8.03033C20.1 8.09997 20.1552 8.18265 20.1929 8.27365C20.2306 8.36464 20.25 8.46217 20.25 8.56066Z" stroke="#3370D7" stroke-width="2" stroke-linecap="round" stroke-linejoin="round"/>
<path d="M12.0005 17.2508C13.4503 17.2508 14.6255 16.0756 14.6255 14.6258C14.6255 13.1761 13.4503 12.0008 12.0005 12.0008C10.5508 12.0008 9.37555 13.1761 9.37555 14.6258C9.37555 16.0756 10.5508 17.2508 12.0005 17.2508Z" stroke="#3370D7" stroke-width="2" stroke-linecap="round" stroke-linejoin="round"/>
<path d="M15 9.00085H9V3.75085" stroke="#3370D7" stroke-width="2" stroke-linecap="round" stroke-linejoin="round"/>
</svg>
