<svg width="24" height="24" viewBox="0 0 24 24" fill="none" xmlns="http://www.w3.org/2000/svg">
<path opacity="0.2" d="M18.364 5.63603C17.458 4.73047 16.3691 4.02873 15.1702 3.57773C13.9713 3.12672 12.6899 2.93684 11.4117 3.02078C10.1335 3.10471 8.88794 3.46053 7.75829 4.06445C6.62864 4.66837 5.64091 5.50647 4.86114 6.52274C4.08137 7.539 3.52751 8.71001 3.2366 9.95749C2.94569 11.205 2.92443 12.5002 3.17422 13.7565C3.42402 15.0129 3.93913 16.2015 4.68512 17.2428C5.4311 18.2841 6.39078 19.1542 7.5 19.7948V16.5L12 6.75L16.5 16.5V19.7948C17.6954 19.1044 18.7159 18.1482 19.4827 17.0003C20.2495 15.8524 20.7421 14.5436 20.9222 13.1749C21.1024 11.8063 20.9654 10.4145 20.5218 9.10729C20.0782 7.80006 19.3399 6.61236 18.364 5.63603V5.63603Z" fill="#3370D7"/>
<path d="M12 21C16.9706 21 21 16.9706 21 12C21 7.02944 16.9706 3 12 3C7.02944 3 3 7.02944 3 12C3 16.9706 7.02944 21 12 21Z" stroke="#3370D7" stroke-width="2" stroke-linecap="round" stroke-linejoin="round"/>
<path d="M13.5 17.25C13.5 16.8522 13.658 16.4706 13.9393 16.1893C14.2206 15.908 14.6022 15.75 15 15.75C15.3978 15.75 15.7794 15.908 16.0607 16.1893C16.342 16.4706 16.5 16.8522 16.5 17.25" stroke="#3370D7" stroke-width="2" stroke-linecap="round" stroke-linejoin="round"/>
<path d="M7.5 17.25C7.5 16.8522 7.65804 16.4706 7.93934 16.1893C8.22064 15.908 8.60218 15.75 9 15.75C9.39782 15.75 9.77936 15.908 10.0607 16.1893C10.342 16.4706 10.5 16.8522 10.5 17.25" stroke="#3370D7" stroke-width="2" stroke-linecap="round" stroke-linejoin="round"/>
<path d="M13.5 20.8748V17.25C13.5 16.8522 13.342 16.4706 13.0607 16.1893C12.7794 15.908 12.3978 15.75 12 15.75C11.6022 15.75 11.2206 15.908 10.9393 16.1893C10.658 16.4706 10.5 16.8522 10.5 17.25V20.8748" stroke="#3370D7" stroke-width="2" stroke-linecap="round" stroke-linejoin="round"/>
<path d="M16.5 19.7963V16.5L12 6.75L7.5 16.5V19.7966" stroke="#3370D7" stroke-width="2" stroke-linecap="round" stroke-linejoin="round"/>
<path d="M14.0769 11.25H9.92308" stroke="#3370D7" stroke-width="2" stroke-linecap="round" stroke-linejoin="round"/>
</svg>
